<svg width="8" height="8" viewBox="0 0 8 8" fill="none" xmlns="http://www.w3.org/2000/svg">
<path d="M6.99774 3.61841C6.90607 2.95874 6.60004 2.34751 6.12681 1.87888C5.65358 1.41024 5.03939 1.1102 4.37886 1.02497C3.71832 0.939739 3.04809 1.07405 2.4714 1.40721C1.89471 1.74037 1.44355 2.2539 1.18743 2.86869M1 1.36926V2.86869H2.49944" stroke="white" stroke-linecap="round" stroke-linejoin="round"/>
<path d="M1 4.36719C1.09168 5.02686 1.3977 5.63809 1.87093 6.10672C2.34417 6.57536 2.95835 6.8754 3.61889 6.96063C4.27942 7.04586 4.94966 6.91155 5.52635 6.57839C6.10304 6.24523 6.55419 5.7317 6.81031 5.11691M6.99774 6.61634V5.11691H5.49831" stroke="white" stroke-linecap="round" stroke-linejoin="round"/>
</svg>
