<svg width="21" height="21" viewBox="0 0 21 21" fill="none" xmlns="http://www.w3.org/2000/svg">
<path d="M1 5.23365C1 4.67233 1.24877 4.134 1.69159 3.73708C2.1344 3.34017 2.73499 3.11719 3.36123 3.11719H17.5286C18.1548 3.11719 18.7554 3.34017 19.1982 3.73708C19.6411 4.134 19.8898 4.67233 19.8898 5.23365V17.9324C19.8898 18.4937 19.6411 19.0321 19.1982 19.429C18.7554 19.8259 18.1548 20.0489 17.5286 20.0489H3.36123C2.73499 20.0489 2.1344 19.8259 1.69159 19.429C1.24877 19.0321 1 18.4937 1 17.9324V5.23365Z" stroke="white" stroke-linecap="round" stroke-linejoin="round"/>
<path d="M15.1675 1V5.23292" stroke="white" stroke-linecap="round" stroke-linejoin="round"/>
<path d="M5.72266 1V5.23292" stroke="white" stroke-linecap="round" stroke-linejoin="round"/>
<path d="M1 9.4668H19.8898" stroke="white" stroke-linecap="round" stroke-linejoin="round"/>
<path d="M5.72266 13.6992H8.08389V15.8157H5.72266V13.6992Z" stroke="white" stroke-linecap="round" stroke-linejoin="round"/>
</svg>
