<svg width="12" height="15" viewBox="0 0 12 15" fill="none" xmlns="http://www.w3.org/2000/svg">
<path d="M7.5 1V3.88889C7.5 4.08043 7.57609 4.26413 7.71153 4.39958C7.84698 4.53502 8.03068 4.61111 8.22222 4.61111H11.1111" stroke="white" stroke-width="1.5" stroke-linecap="round" stroke-linejoin="round"/>
<path d="M9.66667 14H2.44444C2.06135 14 1.69395 13.8478 1.42307 13.5769C1.15218 13.306 1 12.9386 1 12.5556V2.44444C1 2.06135 1.15218 1.69395 1.42307 1.42307C1.69395 1.15218 2.06135 1 2.44444 1H7.5L11.1111 4.61111V12.5556C11.1111 12.9386 10.9589 13.306 10.688 13.5769C10.4172 13.8478 10.0498 14 9.66667 14Z" stroke="white" stroke-width="1.5" stroke-linecap="round" stroke-linejoin="round"/>
<path d="M6.05566 11.1107V6.77734" stroke="white" stroke-width="1.5" stroke-linecap="round" stroke-linejoin="round"/>
<path d="M4.25 9.30469L6.05556 11.1102L7.86111 9.30469" stroke="white" stroke-width="1.5" stroke-linecap="round" stroke-linejoin="round"/>
</svg>
